<svg width="900" height="220" viewBox="0 0 900 220" fill="none" xmlns="http://www.w3.org/2000/svg" role="img" aria-labelledby="title desc">
  <title id="title">Soloist Hart banner</title>
  <desc id="desc">An editorial-style profile banner for the SoloistHart GitHub profile README.</desc>
  <defs>
    <linearGradient id="bg" x1="0" y1="0" x2="900" y2="220" gradientUnits="userSpaceOnUse">
      <stop stop-color="#101114" />
      <stop offset="0.48" stop-color="#171B22" />
      <stop offset="1" stop-color="#202735" />
    </linearGradient>
    <linearGradient id="sand" x1="88" y1="42" x2="534" y2="160" gradientUnits="userSpaceOnUse">
      <stop stop-color="#F2C572" />
      <stop offset="0.52" stop-color="#E7B86A" />
      <stop offset="1" stop-color="#D8A24A" />
    </linearGradient>
    <radialGradient id="glow" cx="0" cy="0" r="1" gradientUnits="userSpaceOnUse" gradientTransform="translate(742 76) rotate(140) scale(248 166)">
      <stop stop-color="#F2C572" stop-opacity="0.2" />
      <stop offset="0.46" stop-color="#C38A38" stop-opacity="0.08" />
      <stop offset="1" stop-color="#C38A38" stop-opacity="0" />
    </radialGradient>
    <linearGradient id="lineFade" x1="116" y1="0" x2="796" y2="0" gradientUnits="userSpaceOnUse">
      <stop stop-color="#F2C572" stop-opacity="0" />
      <stop offset="0.24" stop-color="#F2C572" stop-opacity="0.62" />
      <stop offset="0.72" stop-color="#F2C572" stop-opacity="0.34" />
      <stop offset="1" stop-color="#F2C572" stop-opacity="0" />
    </linearGradient>
  </defs>

  <rect width="900" height="220" rx="28" fill="url(#bg)" />
  <rect x="12" y="12" width="876" height="196" rx="20" stroke="rgba(255,255,255,0.08)" />
  <rect x="52" y="42" width="100" height="24" rx="12" fill="rgba(242,197,114,0.12)" />
  <text x="70" y="58" fill="#F3D39A" font-family="Verdana, Geneva, sans-serif" font-size="11" letter-spacing="2.8">
    SOLOIST HART
  </text>

  <path d="M0 162H900" stroke="url(#lineFade)" stroke-width="1.2" />
  <path d="M0 175C95 165 166 150 247 147C334 144 409 158 492 158C587 158 671 139 760 133C810 130 856 133 900 145" stroke="rgba(242,197,114,0.22)" stroke-width="1.2" />
  <path d="M516 188C590 172 645 164 706 164C773 164 835 173 900 191" stroke="rgba(255,255,255,0.08)" stroke-width="1" />

  <ellipse cx="742" cy="78" rx="184" ry="108" fill="url(#glow)" />
  <circle cx="776" cy="76" r="34" fill="rgba(242,197,114,0.08)" />
  <circle cx="776" cy="76" r="18" fill="rgba(242,197,114,0.15)" />
  <path d="M632 58H838" stroke="rgba(255,255,255,0.06)" stroke-width="1" />
  <path d="M660 94H820" stroke="rgba(255,255,255,0.06)" stroke-width="1" />
  <path d="M688 130H802" stroke="rgba(255,255,255,0.06)" stroke-width="1" />

  <text x="68" y="116" fill="url(#sand)" font-family="Georgia, 'Times New Roman', serif" font-size="54" font-weight="700" letter-spacing="1.4">
    Soloist Hart
  </text>
  <text x="70" y="148" fill="#ECE5DA" font-family="Verdana, Geneva, sans-serif" font-size="15" letter-spacing="1.15">
    Interfaces, systems, and shipped work.
  </text>
  <text x="70" y="176" fill="rgba(236,229,218,0.74)" font-family="Verdana, Geneva, sans-serif" font-size="11" letter-spacing="2.4">
    CALM PRODUCT BUILDING  /  AUTOMATION  /  AI-ASSISTED DEVELOPMENT
  </text>
</svg>